# xmcd
#
# Track frame offsets:
#   150
#   17998
#   34513
#   50654
#   69274
#   88056
#   104707
#   123031
#   142775
#   158893
#   179736
#   199014
#   217894
#   233967
#   251917
#   267022
#   280567
#   296432
#   314231
#
# Disc length: 4404 seconds
#
# Revision: 0
# Processed by: cddbd v1.5.1PL0 Copyright (c) Steve Scherf et al.
# Submitted via: Media_Universe 3.0
#
DISCID=19113213
DTITLE=Uncle Kracker - Uncle Keacker
DYEAR=1900
DGENRE=Country
TTITLE0=Memphis Soul Song
TTITLE1=Better Days
TTITLE2=Follow Me
TTITLE3=In A Little While
TTITLE4=Dont Know How (Not To Love You)
TTITLE5=This Time
TTITLE6=Rescue
TTITLE7=Further Down The Road
TTITLE8=What Do We Want
TTITLE9=Writing It Down
TTITLE10=A Place At My Table
TTITLE11=SomeThings You Cant Take Back
TTITLE12=Songs About Me Songs About You
TTITLE13=Please Come Home
TTITLE14=Blues Man
TTITLE15=Last Night Again
TTITLE16=You're Not Free
TTITLE17=I Dont Know
TTITLE18=Follow Me
EXTD=
EXTT0=
EXTT1=
EXTT2=
EXTT3=
EXTT4=
EXTT5=
EXTT6=
EXTT7=
EXTT8=
EXTT9=
EXTT10=
EXTT11=
EXTT12=
EXTT13=
EXTT14=
EXTT15=
EXTT16=
EXTT17=
EXTT18=
PLAYORDER=
